<svg width="17" height="12" viewBox="0 0 17 12" fill="none" xmlns="http://www.w3.org/2000/svg">
<path d="M2.5 11.6667H1.66667L1.125 10H0V5.8125C0 5.35417 0.163194 4.96528 0.489583 4.64583C0.815972 4.32639 1.20833 4.16667 1.66667 4.16667V1.66667C1.66667 1.20833 1.82986 0.815972 2.15625 0.489583C2.48264 0.163194 2.875 0 3.33333 0H13.3333C13.7917 0 14.184 0.163194 14.5104 0.489583C14.8368 0.815972 15 1.20833 15 1.66667V4.16667C15.4583 4.16667 15.8507 4.32986 16.1771 4.65625C16.5035 4.98264 16.6667 5.375 16.6667 5.83333V10H15.5417L15 11.6667H14.1667L13.625 10H3.04167L2.5 11.6667ZM9.16667 4.16667H13.3333V1.66667H9.16667V4.16667ZM3.33333 4.16667H7.5V1.66667H3.33333V4.16667Z" fill="#5261DE"/>
</svg>
