<svg width="19" height="15" viewBox="0 0 19 15" fill="none" xmlns="http://www.w3.org/2000/svg">
<path d="M3.33333 15C3.09722 15 2.89931 14.9201 2.73958 14.7604C2.57986 14.6007 2.5 14.4028 2.5 14.1667V13.3333C1.80556 13.3333 1.21528 13.0903 0.729167 12.6042C0.243056 12.1181 0 11.5278 0 10.8333V6.66667C0 6.20833 0.163194 5.81597 0.489583 5.48958C0.815972 5.16319 1.20833 5 1.66667 5C2.125 5 2.51736 5.16319 2.84375 5.48958C3.17014 5.81597 3.33333 6.20833 3.33333 6.66667V10H15V6.66667C15 6.20833 15.1632 5.81597 15.4896 5.48958C15.816 5.16319 16.2083 5 16.6667 5C17.125 5 17.5174 5.16319 17.8438 5.48958C18.1701 5.81597 18.3333 6.20833 18.3333 6.66667V10.8333C18.3333 11.5278 18.0903 12.1181 17.6042 12.6042C17.1181 13.0903 16.5278 13.3333 15.8333 13.3333V14.1667C15.8333 14.4028 15.7535 14.6007 15.5938 14.7604C15.434 14.9201 15.2361 15 15 15C14.7639 15 14.566 14.9201 14.4062 14.7604C14.2465 14.6007 14.1667 14.4028 14.1667 14.1667V13.3333H4.16667V14.1667C4.16667 14.4028 4.08681 14.6007 3.92708 14.7604C3.76736 14.9201 3.56944 15 3.33333 15ZM5 8.33333V6.66667C5 5.90278 4.76736 5.21875 4.30208 4.61458C3.83681 4.01042 3.23611 3.58333 2.5 3.33333V2.5C2.5 1.80556 2.74306 1.21528 3.22917 0.729167C3.71528 0.243056 4.30556 0 5 0H13.3333C14.0278 0 14.6181 0.243056 15.1042 0.729167C15.5903 1.21528 15.8333 1.80556 15.8333 2.5V3.33333C15.0833 3.52778 14.4792 3.93403 14.0208 4.55208C13.5625 5.17014 13.3333 5.875 13.3333 6.66667V8.33333H5Z" fill="#5261DE"/>
</svg>
